<svg role="img" aria-label="Cutwire"
     viewBox="0 0 1189.46 317.03503"
     version="1.1"
     id="svg1"
     xml:space="preserve"
     xmlns="http://www.w3.org/2000/svg"
     xmlns:svg="http://www.w3.org/2000/svg"><defs
       id="defs1" /><g
       id="layer1"
       transform="translate(-23.141232,-1670.7978)"><g
         id="g3-2-3"
         transform="matrix(0.87693435,0,0,0.87693435,43.910527,1624.108)"><path
           id="path1-1-6-9-5"
           style="baseline-shift:baseline;display:inline;overflow:visible;opacity:1;vector-effect:none;fill:#fe5f01;stroke-linecap:round;stroke-linejoin:round;enable-background:accumulate;stop-color:#000000;stop-opacity:1"
           d="m 133.36133,119.58008 c -64.997581,0 -118.097658,53.10008 -118.097658,118.09765 0,64.99758 53.100077,118.09766 118.097658,118.09766 35.74435,0 67.89043,-16.05902 89.58594,-41.32422 -0.23832,-0.1971 -28.78125,-24.75781 -28.78125,-24.75781 -14.61762,17.09931 -36.37548,27.88281 -60.80469,27.88281 -44.352768,0 -79.898439,-35.54567 -79.898439,-79.89844 0,-44.35276 35.545671,-79.89843 79.898439,-79.89843 50.11224,0 75.56423,40.75819 79.22656,69.41601 l 33.74609,-23.89453 c -1.8e-4,-5.9e-4 1.9e-4,-0.001 0,-0.002 -0.60512,-1.97831 -26.13365,-83.71875 -112.97265,-83.71875 z" /><path
           style="opacity:1;fill:#fe6101;fill-opacity:1;stroke:none;stroke-width:38.2;stroke-linecap:round;stroke-linejoin:round;stroke-dasharray:none;stroke-opacity:1"
           d="m 223.97308,250.1544 31.49941,-21.88595 c 25.52723,61.93808 29.04858,85.24467 38.15259,85.54957 9.10401,0.30489 33.48041,-42.59853 45.78245,-71.76258 7.4,-17.54295 12.25849,-29.68596 0.15638,-29.71642 -12.10212,-0.0305 -9.60275,11.30477 -0.78806,29.96712 10.17525,21.54291 37.72334,72.45333 47.24901,72.27013 9.52567,-0.1832 27.25749,-58.32774 79.40339,-202.34124 l 35.29039,13.59548 c -69.62922,194.72717 -73.90832,226.51569 -111.88502,227.41288 -45.38138,1.07212 -63.67437,-59.46509 -70.41136,-69.20323 -50.78711,-73.41135 -12.88053,-110.60645 20.2345,-110.43396 33.11502,0.1725 71.97783,29.50573 22.32987,111.60811 -7.48824,12.38322 -33.6563,67.03264 -67.87849,67.61999 -35.37188,0.60708 -49.45565,-36.40528 -69.13506,-102.6799 z"
           id="path2-2-2-3-6" /><path
           style="font-weight:bold;font-size:149.669px;font-family:Montserrat;-inkscape-font-specification:'Montserrat Bold';letter-spacing:4.22306px;fill:currentColor;stroke-width:29.7781;stroke-linecap:round;stroke-linejoin:round"
           d="m 591.93384,235.00185 q -12.12319,0 -22.60002,-3.89139 -10.32716,-4.04106 -17.96028,-11.37484 -7.63312,-7.33379 -11.97352,-17.21194 -4.19074,-9.87815 -4.19074,-21.70201 0,-11.82385 4.19074,-21.702 4.3404,-9.87816 11.97352,-17.21194 7.78278,-7.33378 18.10995,-11.22517 10.32716,-4.04107 22.60002,-4.04107 13.61988,0 24.54571,4.78941 11.07551,4.63974 18.55896,13.76955 l -15.56558,14.36822 q -5.38808,-6.13642 -11.97352,-9.1298 -6.58543,-3.14305 -14.36822,-3.14305 -7.33378,0 -13.47021,2.3947 -6.13643,2.3947 -10.6265,6.88477 -4.49007,4.49007 -7.03445,10.6265 -2.3947,6.13643 -2.3947,13.61988 0,7.48345 2.3947,13.61988 2.54438,6.13643 7.03445,10.6265 4.49007,4.49007 10.6265,6.88478 6.13643,2.3947 13.47021,2.3947 7.78279,0 14.36822,-2.99338 6.58544,-3.14305 11.97352,-9.42915 l 15.56558,14.36823 q -7.48345,9.12981 -18.55896,13.91922 -10.92583,4.7894 -24.69538,4.7894 z m 108.39744,0 q -22.30069,0 -34.87288,-12.42252 -12.5722,-12.42253 -12.5722,-35.47156 v -58.67025 h 24.24638 v 57.77224 q 0,14.9669 6.13643,21.55233 6.13643,6.58544 17.21193,6.58544 11.07551,0 17.21194,-6.58544 6.13643,-6.58543 6.13643,-21.55233 v -57.77224 h 23.94704 v 58.67025 q 0,23.04903 -12.5722,35.47156 -12.57219,12.42252 -34.87287,12.42252 z m 95.25267,-1.79602 v -85.012 h -33.52586 v -19.75631 h 91.29809 v 19.75631 h -33.52586 v 85.012 z m 98.16031,0 -34.2742,-104.76831 h 25.14439 l 29.78413,92.79479 h -12.5722 l 31.13116,-92.79479 h 22.45035 l 29.9338,92.79479 H 973.2185 l 30.5325,-92.79479 h 23.1987 l -34.27423,104.76831 h -26.04241 l -26.49141,-81.41994 h 6.88477 l -27.23975,81.41994 z m 150.89874,0 V 128.43752 h 24.2464 v 104.76831 z m 53.3144,0 V 128.43752 h 44.7511 q 21.8516,0 33.9748,10.17749 12.1232,10.02783 12.1232,27.83844 0,11.67418 -5.5377,20.20531 -5.5378,8.38147 -15.7153,12.87154 -10.1775,4.49007 -24.2464,4.49007 h -31.8794 l 10.7761,-10.6265 v 39.81196 z m 66.6027,0 -26.192,-38.01593 h 25.8927 l 26.4914,38.01593 z m -42.3563,-37.11792 -10.7761,-11.37484 h 30.5324 q 11.2252,0 16.763,-4.78941 5.5377,-4.93908 5.5377,-13.47021 0,-8.6808 -5.5377,-13.47021 -5.5378,-4.78941 -16.763,-4.78941 h -30.5324 l 10.7761,-11.52451 z m 89.9835,37.11792 V 128.43752 h 79.1749 v 19.45697 h -55.0782 v 65.85436 h 57.0239 v 19.45698 z m 22.3007,-43.70335 v -18.8583 h 50.4384 v 18.8583 z"
           id="text1-1-2"
           transform="scale(1.0003439,0.99965621)"
           aria-label="CUTWIRE" /><path
           style="font-weight:500;font-size:96.7246px;font-family:Montserrat;-inkscape-font-specification:'Montserrat Medium';letter-spacing:10.7261px;fill:currentColor;stroke-width:49.485;stroke-linecap:round;stroke-linejoin:round"
           d="m 564.37551,342.39846 q -7.73797,0 -14.79886,-2.32139 -7.0609,-2.41811 -11.12333,-6.19037 l 3.57881,-7.54452 q 3.86898,3.38536 9.86591,5.61002 5.99692,2.22467 12.47747,2.22467 5.9002,0 9.57574,-1.35414 3.67553,-1.35415 5.41658,-3.67554 1.74104,-2.41811 1.74104,-5.41658 0,-3.48208 -2.32139,-5.61002 -2.22467,-2.12795 -5.9002,-3.38536 -3.57881,-1.35415 -7.93142,-2.3214 -4.35261,-0.96724 -8.80194,-2.22466 -4.35261,-1.35415 -8.02814,-3.38536 -3.57881,-2.03122 -5.80348,-5.41658 -2.22466,-3.48209 -2.22466,-8.89866 0,-5.22313 2.70829,-9.57574 2.80501,-4.44933 8.51176,-7.06089 5.80348,-2.70829 14.70214,-2.70829 5.9002,0 11.70368,1.54759 5.80347,1.54759 10.05936,4.44933 l -3.19192,7.73797 q -4.3526,-2.90174 -9.18883,-4.15916 -4.83623,-1.35414 -9.38229,-1.35414 -5.70675,0 -9.38229,1.45087 -3.67553,1.45087 -5.41657,3.86898 -1.64432,2.41812 -1.64432,5.41658 0,3.57881 2.22466,5.70675 2.32139,2.12794 5.9002,3.38536 3.67554,1.25742 8.02815,2.32139 4.3526,0.96725 8.70521,2.22467 4.44933,1.25742 8.02814,3.28863 3.67554,2.03122 5.9002,5.41658 2.22467,3.38536 2.22467,8.70522 0,5.1264 -2.80501,9.57573 -2.80502,4.35261 -8.70522,7.0609 -5.80347,2.61156 -14.70214,2.61156 z m 63.53774,-0.7738 v -59.29218 h -23.2139 v -8.41504 h 56.00354 v 8.41504 h -23.21391 v 59.29218 z m 80.82149,0.7738 q -13.348,0 -20.98924,-7.64124 -7.64125,-7.64125 -7.64125,-22.34339 v -38.49639 h 9.67246 v 38.1095 q 0,11.31677 4.93296,16.5399 5.02968,5.22313 14.12179,5.22313 9.18884,0 14.12179,-5.22313 5.02968,-5.22313 5.02968,-16.5399 v -38.1095 h 9.38229 v 38.49639 q 0,14.70214 -7.64125,22.34339 -7.54451,7.64124 -20.98923,7.64124 z m 59.18515,-0.7738 v -67.70722 h 28.53376 q 10.83316,0 19.05475,4.25589 8.31831,4.25588 12.86437,11.89712 4.64278,7.64125 4.64278,17.7006 0,10.05936 -4.64278,17.70061 -4.54606,7.64124 -12.86437,11.89712 -8.22159,4.25588 -19.05475,4.25588 z m 9.67246,-8.41504 h 18.28095 q 8.41504,0 14.50869,-3.19191 6.19038,-3.19191 9.57574,-8.89866 3.38536,-5.80348 3.38536,-13.348 0,-7.64124 -3.38536,-13.34799 -3.38536,-5.70675 -9.57574,-8.89866 -6.09365,-3.19192 -14.50869,-3.19192 h -18.28095 z m 80.94819,8.41504 v -67.70722 h 9.67246 v 67.70722 z m 71.27564,0.7738 q -7.73797,0 -14.41197,-2.61156 -6.57727,-2.61157 -11.4135,-7.25435 -4.83623,-4.7395 -7.54452,-11.0266 -2.70829,-6.2871 -2.70829,-13.7349 0,-7.44779 2.70829,-13.73489 2.70829,-6.2871 7.54452,-10.92988 4.83623,-4.73951 11.4135,-7.35107 6.57728,-2.61156 14.41197,-2.61156 7.73797,0 14.21852,2.61156 6.57727,2.51484 11.4135,7.25435 4.93295,4.64278 7.54452,10.92988 2.70829,6.28709 2.70829,13.83161 0,7.54452 -2.70829,13.83162 -2.61157,6.2871 -7.54452,11.02661 -4.83623,4.64278 -11.4135,7.25434 -6.48055,2.51484 -14.21852,2.51484 z m 0,-8.60849 q 5.61003,0 10.34953,-1.93449 4.83623,-1.93449 8.31832,-5.41658 3.57881,-3.57881 5.5133,-8.31831 2.03122,-4.73951 2.03122,-10.34954 0,-5.61002 -2.03122,-10.34953 -1.93449,-4.7395 -5.5133,-8.22159 -3.48209,-3.57881 -8.31832,-5.5133 -4.7395,-1.93449 -10.34953,-1.93449 -5.70675,0 -10.54298,1.93449 -4.73951,1.93449 -8.31832,5.5133 -3.57881,3.48209 -5.61002,8.22159 -1.9345,4.73951 -1.9345,10.34953 0,5.61003 1.9345,10.34954 2.03121,4.7395 5.61002,8.31831 3.57881,3.48209 8.31832,5.41658 4.83623,1.93449 10.54298,1.93449 z m 81.14162,8.60849 q -7.738,0 -14.79885,-2.32139 -7.06089,-2.41811 -11.12333,-6.19037 l 3.57881,-7.54452 q 3.86899,3.38536 9.86591,5.61002 5.99696,2.22467 12.47746,2.22467 5.9002,0 9.5758,-1.35414 3.6755,-1.35415 5.4165,-3.67554 1.7411,-2.41811 1.7411,-5.41658 0,-3.48208 -2.3214,-5.61002 -2.2247,-2.12795 -5.9002,-3.38536 -3.5788,-1.35415 -7.9314,-2.3214 -4.3526,-0.96724 -8.802,-2.22466 -4.35258,-1.35415 -8.02812,-3.38536 -3.57881,-2.03122 -5.80347,-5.41658 -2.22467,-3.48209 -2.22467,-8.89866 0,-5.22313 2.70829,-9.57574 2.80501,-4.44933 8.51177,-7.06089 5.8035,-2.70829 14.7021,-2.70829 5.9002,0 11.7037,1.54759 5.8035,1.54759 10.0594,4.44933 l -3.1919,7.73797 q -4.3526,-2.90174 -9.1889,-4.15916 -4.8362,-1.35414 -9.3823,-1.35414 -5.7067,0 -9.3823,1.45087 -3.67549,1.45087 -5.41653,3.86898 -1.64432,2.41812 -1.64432,5.41658 0,3.57881 2.22467,5.70675 2.32138,2.12794 5.90018,3.38536 3.6756,1.25742 8.0282,2.32139 4.3526,0.96725 8.7052,2.22467 4.4493,1.25742 8.0281,3.28863 3.6756,2.03122 5.9002,5.41658 2.2247,3.38536 2.2247,8.70522 0,5.1264 -2.805,9.57573 -2.805,4.35261 -8.7052,7.0609 -5.8035,2.61156 -14.7022,2.61156 z"
           id="text2-4-9"
           aria-label="STUDIOS" /></g></g></svg>
